<?xml version="1.0" encoding="utf-8"?>
<!-- Generator: Adobe Illustrator 16.0.0, SVG Export Plug-In . SVG Version: 6.00 Build 0)  -->
<!DOCTYPE svg PUBLIC "-//W3C//DTD SVG 1.1//EN" "http://www.w3.org/Graphics/SVG/1.1/DTD/svg11.dtd">
<svg version="1.1" id="Layer_1" xmlns="http://www.w3.org/2000/svg" xmlns:xlink="http://www.w3.org/1999/xlink" x="0px" y="0px"
	 width="645.738px" height="210.406px" viewBox="0 0 645.738 210.406" enable-background="new 0 0 645.738 210.406"
	 xml:space="preserve">
<g>
	<path stroke="#000000" stroke-width="10" stroke-miterlimit="10" d="M201.95,144.306V85.237l-24.12,38.647h-0.49l-23.876-38.259
		v58.681h-18.61V53.829h20.325l22.528,38.259l22.529-38.259h20.325v90.477H201.95z"/>
	<path stroke="#000000" stroke-width="10" stroke-miterlimit="10" d="M293.168,144.306l-18.366-28.952h-14.815v28.952h-18.855
		V53.829h39.181c10.202,0,18.141,2.629,23.814,7.884c5.673,5.257,8.51,12.582,8.51,21.973v0.258c0,7.325-1.695,13.293-5.081,17.902
		c-3.389,4.611-7.817,7.994-13.285,10.146l20.938,32.313H293.168z M293.535,84.721c0-4.308-1.307-7.539-3.918-9.694
		c-2.613-2.153-6.245-3.231-10.897-3.231h-18.733v25.979h19.101c4.653,0,8.223-1.163,10.714-3.49
		c2.488-2.327,3.734-5.429,3.734-9.306V84.721z"/>
	<path stroke="#000000" stroke-width="10" stroke-miterlimit="10" d="M389.772,144.306l-41.508-57.518v57.518h-18.61V53.829h17.387
		l40.16,55.708V53.829h18.61v90.477H389.772z"/>
</g>
<g>
	<path d="M147.099,179.579h-0.15l-9.599-14.861v22.49h-2.897v-27.814h3.011l9.598,15.179l9.599-15.179h3.011v27.814h-2.974v-22.529
		L147.099,179.579z"/>
	<path d="M186.168,162.254h-16.071v9.496h14.378v2.861h-14.378v9.734h16.26v2.861h-19.233v-27.814h19.045V162.254z"/>
	<path d="M214.473,178.764c-0.678,1.708-1.638,3.186-2.88,4.43c-1.242,1.246-2.723,2.225-4.441,2.94s-3.607,1.073-5.664,1.073
		h-9.146v-27.814h9.146c2.057,0,3.945,0.352,5.664,1.053c1.719,0.703,3.199,1.676,4.441,2.921s2.202,2.716,2.88,4.411
		c0.677,1.695,1.016,3.523,1.016,5.482C215.488,175.221,215.149,177.055,214.473,178.764z M211.631,169.009
		c-0.515-1.351-1.242-2.523-2.184-3.517c-0.94-0.993-2.089-1.774-3.443-2.344c-1.355-0.57-2.861-0.855-4.517-0.855h-6.173v22.014
		h6.173c1.655,0,3.161-0.279,4.517-0.835c1.354-0.556,2.503-1.331,3.443-2.325c0.941-0.992,1.669-2.151,2.184-3.477
		c0.514-1.324,0.771-2.768,0.771-4.33C212.402,171.804,212.145,170.36,211.631,169.009z"/>
	<path d="M225.011,159.393v27.814h-2.973v-27.814H225.011z"/>
	<path d="M257.268,187.208h-3.199l-3.086-7.352h-14.341l-3.124,7.352h-3.049l12.007-28.013h2.785L257.268,187.208z M243.831,162.89
		l-6.022,14.185h12.007L243.831,162.89z"/>
	<path d="M291.895,187.208l-7.641-10.809h-7.527v10.809h-2.974v-27.814h11.329c1.455,0,2.767,0.199,3.934,0.598
		c1.167,0.396,2.164,0.96,2.992,1.688c0.828,0.729,1.468,1.604,1.92,2.624c0.451,1.021,0.677,2.153,0.677,3.398
		c0,1.166-0.176,2.207-0.526,3.121c-0.352,0.914-0.848,1.709-1.487,2.385s-1.398,1.239-2.277,1.689
		c-0.878,0.451-1.832,0.77-2.86,0.954l8.093,11.356H291.895z M289.857,163.75c-1.182-0.97-2.842-1.456-4.98-1.456h-8.15v11.324
		h8.112c0.981,0,1.887-0.133,2.717-0.398s1.547-0.645,2.151-1.137c0.604-0.491,1.075-1.096,1.415-1.814
		c0.339-0.717,0.509-1.527,0.509-2.432C291.631,166.083,291.04,164.719,289.857,163.75z"/>
	<path d="M320.011,162.254h-16.071v9.496h14.378v2.861h-14.378v9.734h16.26v2.861h-19.233v-27.814h19.045V162.254z"/>
	<path d="M346.021,159.393h3.199l-11.33,28.013h-2.635l-11.329-28.013h3.313l9.372,23.96L346.021,159.393z"/>
	<path d="M357.649,159.393v27.814h-2.973v-27.814H357.649z"/>
	<path d="M384.411,162.254H368.34v9.496h14.378v2.861H368.34v9.734h16.26v2.861h-19.233v-27.814h19.045V162.254z"/>
	<path d="M406.543,159.314h2.446l7.227,23.244l7.528-23.165h3.124l-9.41,28.013h-2.521l-7.227-22.569l-7.265,22.569h-2.484
		l-9.41-28.013h3.237l7.528,23.165L406.543,159.314z"/>
	<path d="M462.926,159.393h2.898v27.814h-2.371L446.439,164.4v22.808h-2.897v-27.814h2.785l16.599,22.291V159.393z"/>
	<path d="M492.321,162.254H476.25v9.496h14.378v2.861H476.25v9.734h16.26v2.861h-19.233v-27.814h19.045V162.254z"/>
	<path d="M508.432,187.208h-2.974v-24.914h-8.845v-2.9h20.663v2.9h-8.845V187.208z"/>
	<path d="M538.844,159.314h2.446l7.227,23.244l7.528-23.165h3.124l-9.41,28.013h-2.521l-7.227-22.569l-7.265,22.569h-2.484
		l-9.41-28.013h3.237l7.528,23.165L538.844,159.314z"/>
	<path d="M587.925,178.764c-0.652,1.734-1.568,3.265-2.747,4.589c-1.181,1.325-2.598,2.378-4.254,3.159
		c-1.656,0.78-3.488,1.172-5.495,1.172c-2.008,0-3.833-0.385-5.477-1.152s-3.055-1.809-4.234-3.119
		c-1.18-1.312-2.089-2.834-2.729-4.569s-0.96-3.569-0.96-5.503s0.326-3.768,0.979-5.504c0.652-1.734,1.568-3.264,2.748-4.589
		c1.179-1.324,2.597-2.377,4.253-3.159c1.656-0.781,3.487-1.172,5.495-1.172s3.833,0.385,5.477,1.152
		c1.644,0.769,3.055,1.809,4.234,3.119c1.18,1.312,2.089,2.835,2.729,4.569c0.641,1.735,0.96,3.569,0.96,5.503
		S588.577,177.029,587.925,178.764z M585.046,168.85c-0.515-1.404-1.236-2.623-2.165-3.655c-0.928-1.033-2.026-1.854-3.293-2.464
		c-1.268-0.609-2.653-0.914-4.159-0.914s-2.893,0.299-4.159,0.895c-1.268,0.596-2.353,1.41-3.256,2.443s-1.612,2.245-2.126,3.636
		c-0.515,1.391-0.772,2.881-0.772,4.47c0,1.59,0.258,3.086,0.772,4.49c0.514,1.404,1.235,2.623,2.164,3.655
		c0.928,1.033,2.025,1.854,3.293,2.464c1.267,0.609,2.653,0.914,4.159,0.914s2.892-0.299,4.159-0.895
		c1.267-0.596,2.353-1.41,3.256-2.443s1.612-2.245,2.127-3.636c0.514-1.391,0.771-2.881,0.771-4.47
		C585.817,171.75,585.56,170.254,585.046,168.85z"/>
	<path d="M613.331,187.208l-7.641-10.809h-7.527v10.809h-2.974v-27.814h11.329c1.455,0,2.767,0.199,3.934,0.598
		c1.167,0.396,2.164,0.96,2.992,1.688c0.828,0.729,1.468,1.604,1.92,2.624c0.451,1.021,0.677,2.153,0.677,3.398
		c0,1.166-0.176,2.207-0.526,3.121c-0.352,0.914-0.848,1.709-1.487,2.385s-1.398,1.239-2.277,1.689
		c-0.878,0.451-1.832,0.77-2.86,0.954l8.093,11.356H613.331z M611.294,163.75c-1.182-0.97-2.842-1.456-4.98-1.456h-8.15v11.324
		h8.112c0.981,0,1.887-0.133,2.717-0.398s1.547-0.645,2.151-1.137c0.604-0.491,1.075-1.096,1.415-1.814
		c0.339-0.717,0.509-1.527,0.509-2.432C613.067,166.083,612.477,164.719,611.294,163.75z"/>
	<path d="M644.835,187.208h-3.727l-10.125-13.471l-5.607,6v7.471h-2.974v-27.814h2.974v16.609l15.131-16.609h3.839l-11.292,12.158
		L644.835,187.208z"/>
</g>
<path fill-rule="evenodd" clip-rule="evenodd" d="M0.032,210.125c0-0.629,0-1.132,0-1.635c0-7.568-0.094-15.139,0.039-22.707
	c0.076-4.232,1.809-7.919,4.777-10.949c1.45-1.48,3.291-2.193,5.399-2.188c1.157,0.001,2.331,0.027,3.47-0.149
	c2.231-0.346,3.794-2.286,3.77-4.503c-0.022-2.137-1.599-4.031-3.717-4.439c-0.593-0.113-1.197-0.162-1.796-0.235
	c-3.069-0.378-5.231-2.929-5.048-5.955c0.183-2.996,2.542-5.235,5.603-5.247c5.243-0.021,10.489-0.007,15.893-0.007
	c-0.155-0.397-0.228-0.692-0.375-0.942c-6.208-10.512-9.619-21.922-11.037-34.001c-3.796-32.256,12.08-64.732,34.322-82.732
	c1.8-1.456,3.723-2.769,5.63-4.089c1.582-1.095,2.567-2.95,2.002-4.789c-0.531-1.723-1.468-3.32-2.178-4.869
	c-1.553,0.579-2.682,1.147-3.878,1.419c-4.146,0.941-7.4-1.828-7.253-6.078c0.161-4.707,5.168-8.582,9.632-7.374
	c0.903,0.245,1.839,0.743,2.516,1.384c1.34,1.264,2.573,2.657,3.732,4.091c2.217,2.743,2.973,6.026,3.227,9.714
	c0.815-0.63,1.462-1.181,2.158-1.657c7.89-5.395,15.783-10.784,23.698-16.145c0.354-0.238,0.943-0.32,1.374-0.231
	c3.214,0.668,4.511-0.086,5.442-3.286C97.653,1.775,97.802,1.005,98.038,0c2.91,4.112,5.727,8.089,8.756,12.369
	c-1.581-0.12-2.829-0.271-4.083-0.296c-2.23-0.043-3.22,0.594-3.582,2.817c-0.28,1.718-1.254,2.59-2.574,3.457
	c-7.722,5.066-15.407,10.19-23.1,15.297c-0.333,0.22-0.64,0.481-0.757,0.572c1.992,1.699,4.004,3.306,5.884,5.055
	c1.056,0.985,1.965,2.153,2.822,3.327c1.375,1.892,1.366,3.988,0.553,6.093c-1.353,3.497-5.476,5.741-9.165,5.037
	c-3.484-0.666-5.532-4.165-4.238-7.694c0.598-1.632,1.796-3.045,2.745-4.597C67.93,38.66,63.491,38.6,59.488,41.52
	c-5.081,3.706-8.801,8.613-12.076,13.888c-4.652,7.495-7.93,15.535-9.001,24.333c-1.286,10.576-1.063,21.096,1.857,31.437
	c0.326,1.154,1.254,2.463,0.946,3.383c-0.304,0.899-1.865,1.34-2.803,2.07c-3.596,2.813-5.791,6.609-7.295,10.818
	c-2.787,7.801-2.817,15.822-1.713,23.912c0.029,0.219,0.158,0.428,0.276,0.734c4.962,0,9.926-0.01,14.891,0.009
	c0.874,0.003,1.786-0.016,2.617,0.21c2.707,0.738,4.514,3.445,4.202,6.134c-0.327,2.827-2.602,4.88-5.693,5.181
	c-0.777,0.076-1.592,0.12-2.306,0.399c-1.933,0.753-2.913,2.724-2.561,4.884c0.307,1.864,2,3.355,3.978,3.492
	c0.415,0.027,0.835,0.059,1.251,0.033c5.158-0.304,8.365,2.444,10.5,6.781c1.239,2.52,1.92,5.156,1.875,8.035
	c-0.111,7.149-0.065,14.302-0.032,21.453c0.007,1.205-0.261,1.705-1.617,1.698c-18.527-0.097-37.055-0.138-55.583-0.196
	C0.883,210.209,0.562,210.167,0.032,210.125z M66.26,33.855c1.046,0.592,1.929,1.09,2.809,1.589
	c0.048-0.068,0.095-0.135,0.143-0.203c-0.513-0.896-1.025-1.79-1.581-2.76c1.221-0.296,2.254-0.546,3.286-0.795
	c-0.005-0.076-0.007-0.154-0.013-0.232c-1.06-0.27-2.119-0.54-3.304-0.841c0.614-1.025,1.168-1.945,1.719-2.868
	c-0.052-0.054-0.105-0.108-0.159-0.162c-0.93,0.549-1.859,1.097-2.887,1.703c-0.298-1.184-0.565-2.238-0.83-3.292
	c-0.075,0.005-0.15,0.012-0.226,0.016c-0.27,1.063-0.54,2.125-0.833,3.283c-1.018-0.604-1.94-1.15-2.862-1.698
	c-0.051,0.062-0.1,0.121-0.148,0.181c0.541,0.92,1.085,1.84,1.677,2.847c-1.225,0.313-2.284,0.582-3.709,0.947
	c1.464,0.369,2.546,0.638,3.724,0.933c-0.633,1.066-1.186,1.997-1.737,2.929c0.054,0.045,0.108,0.091,0.162,0.136
	c0.928-0.56,1.857-1.12,2.877-1.732c0.32,1.188,0.612,2.261,0.998,3.686C65.713,36.092,65.964,35.063,66.26,33.855z"/>
</svg>
